<?xml version="1.0" encoding="utf-8"?>
<!-- Generator: Adobe Illustrator 25.0.1, SVG Export Plug-In . SVG Version: 6.00 Build 0)  -->
<svg version="1.0" id="katman_1" xmlns="http://www.w3.org/2000/svg" xmlns:xlink="http://www.w3.org/1999/xlink" x="0px" y="0px"
	 viewBox="0 0 560 400" style="enable-background:new 0 0 560 400;" xml:space="preserve">
<style type="text/css">
	.st0{fill-rule:evenodd;clip-rule:evenodd;fill:#28B5FC;}
</style>
<path class="st0" d="M430.7,226.9c-157.1-12.4-287.3,26-316.4,40c-16.2,7.6-17.3,16.8-15.1,22.2c1.6,4.3,9.7,6.5,18.4,2.2
	c62.6-33.5,189-60.1,313.2-52.5C436.6,238.2,439.3,227.9,430.7,226.9L430.7,226.9z M469.5,179.8c-7,7.6-16.2,13-19.4,10.3
	c-3.2-2.7,0-11.4,0-11.4C465.8,169,496,143,496,123.5c0-18.4-16.2-23.8-33.5-7c-11.9,11.4-23.2,32.5-29.2,53.6
	c-8.6,8.7-22.7,20-35.6,20c-7,0-8.6-4.9-7.6-10.8c10.8-0.5,40.5-8.7,40.5-34.1c-0.5-10.8-8.6-14.6-16.7-14.6
	c-13.5,0-30.8,14.1-39.4,33.5c-2.2-0.5-4.9-1.1-7-2.7c2.7-6,4.9-11.4,4.9-14.6c1.6-10.3-2.7-16.8-10.8-16.2
	c-5.4,0.5-11.9,4.9-13,16.2c-1.1,7.6,2.7,16.2,2.7,16.2c-2.7,11.4-17.3,26-22.7,25.4c-4.9,0,1.1-21.1,5.9-36.3c2.7-3.2,5.4-7,7-10.3
	c1.1-4.9-0.5-7-2.7-8.7c-3.2-2.7-14-1.6-20,8.7c-1.6,2.7-3.2,7-5.4,11.9c-4.3,4.9-10.8,11.9-13,10.8c-2.7-1.6,6.5-14.6,4.9-21.6
	c-1.1-6.5-6.5-9.7-11.9-9.2c-8.1,1.1-18.9,17.9-18.9,17.9s2.2-4.9,2.2-9.2c-0.5-6-11.9-8.7-17.3,2.7c-2.2,4.3-5.4,18.9-8.6,33
	c-2.7,4.9-11.9,20-18.9,20.6c-5.9,0.5,1.1-26.5,2.2-28.1c3.2-4.9,7.6-15.7,7-20.6c-0.5-6.5-4.9-7.6-8.6-7c-5.9,1.1-8.6,7-8.6,7
	s-3.2-4.9-11.3-4.3c-24.8,2.7-41,46-38.9,66.5c1.1,10.8,7,17.9,16.2,16.8c10.8-1.1,20-17.3,20-17.3s2.7,13,14,11.4
	c7.6-1.1,15.7-8.1,22.1-15.1c-0.5,1.1-0.5,2.7-0.5,2.7c-1.6,10.8,16.7,9.7,17.8,1.1c5.4-41.7,18.9-59,23.2-59
	c3.2,0-8.6,19.5-1.6,27.1c5.4,6.5,14.6,1.1,22.7-5.4c-1.1,5.4-2.2,10.8-2.2,16.2c-0.5,11.9,3.8,21.1,15.1,20.6
	c15.1-0.5,30.8-18.9,41.6-36.8c2.7,1.6,5.4,2.7,8.6,3.8c-1.1,4.3-1.1,8.7-1.1,13c1.1,13.5,10.3,18.9,21.1,18.4
	c13-0.5,27.5-10.3,38.3-18.9c0,0.5,0,1.1-0.5,1.1c-1.1,6.5,0.5,18.9,9.7,18.9c10.8,1.1,29.7-10.3,38.9-22.2
	C483,180.9,475.5,173.3,469.5,179.8L469.5,179.8z M479.8,123.5c1.1,0,1.6,1.1,1.6,2.7c0,11.4-29.2,36.3-29.2,36.3
	S471.7,123.5,479.8,123.5z M409.6,147.9c2.7,0,3.2,1.1,3.2,3.8c0,6.5-8.6,11.4-18.9,11.9C399.3,155.4,405.3,147.9,409.6,147.9z
	 M214.7,166.3c-1.1,7-13,38.4-20,38.4c-8.6,0.5,4.3-44.4,17.8-44.4C215.7,160.8,215.7,162.5,214.7,166.3L214.7,166.3z M108.8,174.9
	c8.1,0-6.5,41.7-4.9,60.1c1.6,18.4,22.1,13,20.5,2.7c-2.2-17.9,9.7-74.1,22.1-74.1c8.6,0-9.7,38.4-5.9,63.3
	c2.7,16.2,24.3,10.8,21.6,1.1c-7-31.9,15.7-62.8,13-84.9c-1.1-9.2-7-14.6-13-14.6c-20.5,0-36.2,41.1-36.2,41.1s1.6-23.3-14.6-24.4
	c-23.8-1.6-48.1,57.9-47.5,112c0.5,17.3,22.1,14.6,20.5,0.5C82.9,232.3,96.9,174.9,108.8,174.9L108.8,174.9z"/>
</svg>
