<?xml version="1.0" encoding="UTF-8"?>
<svg id="logosandtypes_com" data-name="logosandtypes com" xmlns="http://www.w3.org/2000/svg" viewBox="0 0 150 150">
  <defs>
    <style>
      .cls-1 {
        fill: #ff4b4b;
      }

      .cls-2 {
        fill: #5887ff;
      }

      .cls-3 {
        fill: none;
      }

      .cls-4 {
        fill: #fc83ff;
      }

      .cls-5 {
        fill: #fa0;
      }

      .cls-6 {
        fill: #00843f;
      }
    </style>
  </defs>
  <path class="cls-3" d="M0,0H150V150H0V0Z"/>
  <g>
    <polygon points="123.08 53.05 142.7 54.18 142.7 128.82 123.08 128.82 123.08 53.05"/>
    <path class="cls-6" d="M100.17,54.18c0-6.31,5.08-11.39,11.39-11.39,1.3-6.98,1.51-13.59,0-19.62-17.01,0-30.87,13.86-30.87,31.01v55.16l19.62,1.44V54.18h-.14Z"/>
    <path class="cls-4" d="M123.08,54.18h19.62c-.14-17.15-13.99-31.01-31.01-31.01v19.62c6.31,0,11.39,5.08,11.39,11.39Z"/>
  </g>
  <polygon class="cls-5" points="100.17 128.82 100.17 109.2 68.09 109.2 69.3 128.82 100.17 128.82"/>
  <polygon class="cls-2" points="49.81 128.82 69.3 128.82 69.3 109.2 69.3 54.18 49.81 53.05 49.81 128.82"/>
  <polygon points="7.42 54.18 27.04 53.05 27.04 128.82 7.42 128.82 7.42 54.18"/>
  <path class="cls-1" d="M38.43,42.8c6.31,0,11.39,5.08,11.39,11.39h19.62c-.14-17.15-13.99-31.01-31.01-31.01S7.42,37.03,7.42,54.18H27.04c0-6.31,5.08-11.39,11.39-11.39Z"/>
</svg>