<svg xmlns="http://www.w3.org/2000/svg" xmlns:xlink="http://www.w3.org/1999/xlink" id="Calque_1" x="0px" y="0px" viewBox="0 0 200 67.8" xml:space="preserve"><path fill="#3388BE" d="M112.2,9C105.8,3,96.5,0.1,84.5,0.1H65.4v67.7h18.3c12.9,0,22.5-3.1,28.8-9.2c6.3-6.1,9.4-14.5,9.4-25 S118.7,14.9,112.2,9z M101.2,49.2c-3.7,3.5-9,5.2-15.9,5.2h-4.7V13.3h3.6c7.7,0,13.4,1.8,17.1,5.4c3.7,3.6,5.6,8.7,5.6,15.4 C106.7,40.6,104.9,45.7,101.2,49.2z"></path><path fill="#3388BE" d="M127.4,0h15.1v67.7h-15.1V0z"></path><path fill="#3388BE" d="M168,14.6c-1.4,1.2-2.1,2.7-2.1,4.6c0,1.9,0.9,3.4,2.6,4.5c1.7,1.1,5.7,2.5,11.9,4c6.2,1.5,11,3.8,14.5,6.9 c3.4,3.1,5.2,7.5,5.2,13.4c0,5.9-2.2,10.6-6.6,14.3c-4.4,3.7-10.2,5.5-17.4,5.5c-10.4,0-19.7-3.8-28-11.5l8.7-10.7 c7.1,6.2,13.6,9.3,19.6,9.3c2.7,0,4.8-0.6,6.3-1.7c1.5-1.2,2.3-2.7,2.3-4.7c0-2-0.8-3.5-2.4-4.7c-1.6-1.2-4.8-2.3-9.6-3.5 c-7.6-1.8-13.2-4.2-16.7-7.1c-3.5-2.9-5.3-7.5-5.3-13.7c0-6.2,2.2-11,6.7-14.4c4.5-3.4,10-5.1,16.7-5.1c4.4,0,8.7,0.7,13.1,2.2 c4.4,1.5,8.2,3.6,11.4,6.4l-7.4,10.7c-5.7-4.3-11.6-6.5-17.6-6.5C171.3,12.8,169.4,13.4,168,14.6z"></path><path fill="#3388BE" d="M45.2,0.1L0,67.8h16.8l6.3-9.4h19.3v9.4h15.7V0.1H45.2z M42.5,45.5H30.8l11.6-19.1V45.5z"></path></svg>