<?xml version="1.0" encoding="UTF-8" standalone="no"?>
<svg
   xmlns:dc="http://purl.org/dc/elements/1.1/"
   xmlns:cc="http://creativecommons.org/ns#"
   xmlns:rdf="http://www.w3.org/1999/02/22-rdf-syntax-ns#"
   xmlns:svg="http://www.w3.org/2000/svg"
   xmlns="http://www.w3.org/2000/svg"
   xmlns:sodipodi="http://sodipodi.sourceforge.net/DTD/sodipodi-0.dtd"
   xmlns:inkscape="http://www.inkscape.org/namespaces/inkscape"
   width="800"
   height="222.55768"
   viewBox="0 0 640 178.04614"
   version="1.1"
   id="svg2"
   inkscape:version="0.91 r13725"
   sodipodi:docname="Airbus Helicopters logo 2014.svg">
  <metadata
     id="metadata3353">
    <rdf:RDF>
      <cc:Work
         rdf:about="">
        <dc:format>image/svg+xml</dc:format>
        <dc:type
           rdf:resource="http://purl.org/dc/dcmitype/StillImage" />
        <dc:title></dc:title>
      </cc:Work>
    </rdf:RDF>
  </metadata>
  <sodipodi:namedview
     pagecolor="#ffffff"
     bordercolor="#666666"
     borderopacity="1"
     objecttolerance="10"
     gridtolerance="10"
     guidetolerance="10"
     inkscape:pageopacity="0"
     inkscape:pageshadow="2"
     inkscape:window-width="1440"
     inkscape:window-height="881"
     id="namedview3351"
     showgrid="false"
     inkscape:zoom="40.594912"
     inkscape:cx="422.21017"
     inkscape:cy="-4.9067961"
     inkscape:window-x="1276"
     inkscape:window-y="-4"
     inkscape:window-maximized="1"
     inkscape:current-layer="svg2"
     fit-margin-top="0"
     fit-margin-left="0"
     fit-margin-right="0"
     fit-margin-bottom="0"
     units="px" />
  <defs
     id="defs4" />
  <g
     id="g4148"
     transform="matrix(7.0666383,0,0,7.0666383,0,3.5333191e-4)">
    <path
       inkscape:connector-curvature="0"
       id="path3323"
       d="m 28.42968,19.18745 0,2.3711 -3.95312,0 0,-2.3711 -0.81641,0 0,5.83985 0.81641,0 0,-2.59766 3.95312,0 0,2.59766 0.81641,0 0,-5.83985"
       style="clip-rule:nonzero;fill:#12285f;fill-opacity:1;fill-rule:nonzero;stroke:none" />
    <path
       inkscape:connector-curvature="0"
       id="path3325"
       d="m 30.61328,19.18745 0,5.83985 5.16797,0 0,-0.8711 -4.34766,0 0,-1.72656 2.88672,0 0,-0.87109 -2.88672,0 0,-1.49219 4.15234,0 0,-0.87891"
       style="clip-rule:nonzero;fill:#12285f;fill-opacity:1;fill-rule:nonzero;stroke:none" />
    <path
       inkscape:connector-curvature="0"
       id="path3327"
       d="m 37.00781,19.18745 0,5.83985 4.625,0 0,-0.8711 -3.8086,0 0,-4.96875"
       style="clip-rule:nonzero;fill:#12285f;fill-opacity:1;fill-rule:nonzero;stroke:none" />
    <path
       inkscape:connector-curvature="0"
       id="path3329"
       d="m 42.72656,25.03511 0.8164,0 0,-5.84766 -0.8164,0 z"
       style="clip-rule:nonzero;fill:#12285f;fill-opacity:1;fill-rule:nonzero;stroke:none" />
    <path
       inkscape:connector-curvature="0"
       id="path3331"
       d="M 50.80468,20.51948 50.0625,20.8398 c -0.5,-0.63282 -1.19922,-0.94532 -2.09766,-0.94532 -0.68359,0 -1.23828,0.19922 -1.66797,0.61719 -0.42578,0.41797 -0.64062,0.94531 -0.64062,1.58203 0,0.66406 0.21093,1.19922 0.63281,1.60156 0.42578,0.41016 1,0.60938 1.72265,0.60938 0.8711,0 1.55469,-0.32031 2.0586,-0.96094 l 0.69922,0.46094 c -0.35157,0.48437 -0.75391,0.84375 -1.20313,1.05859 -0.44531,0.22266 -0.98437,0.32813 -1.60156,0.32813 -0.87109,0 -1.60156,-0.26172 -2.17188,-0.77735 -0.66406,-0.59375 -0.99218,-1.36718 -0.99218,-2.32031 0,-0.9414 0.33203,-1.70703 1.0039,-2.30469 0.57813,-0.52734 1.30078,-0.78125 2.16016,-0.78125 1.23437,0 2.17969,0.50782 2.83984,1.51172"
       style="clip-rule:nonzero;fill:#12285f;fill-opacity:1;fill-rule:nonzero;stroke:none" />
    <path
       inkscape:connector-curvature="0"
       id="path3333"
       d="m 57.25781,22.10151 c 0,-0.68359 -0.2461,-1.24218 -0.73438,-1.65625 -0.42578,-0.37109 -0.94922,-0.55078 -1.57812,-0.55078 -0.6836,0 -1.2461,0.20703 -1.67188,0.625 -0.42968,0.41407 -0.64843,0.94532 -0.64843,1.58203 0,0.66407 0.21093,1.19922 0.63671,1.60157 0.41407,0.40625 0.98047,0.60937 1.6836,0.60937 0.70312,0 1.26172,-0.20703 1.68359,-0.61719 0.41797,-0.40234 0.62891,-0.9375 0.62891,-1.59375 m 0.85156,0 c 0,0.95313 -0.32812,1.72657 -0.99609,2.32032 -0.57813,0.51562 -1.30078,0.77343 -2.16797,0.77343 -0.8711,0 -1.59766,-0.25781 -2.17969,-0.78125 -0.66406,-0.59375 -0.99609,-1.35937 -0.99609,-2.3125 0,-0.9375 0.33984,-1.70312 1.00781,-2.30468 0.58984,-0.52735 1.31641,-0.78907 2.16797,-0.78907 0.86328,0 1.58203,0.26172 2.16406,0.78907 0.66406,0.60156 1,1.36718 1,2.30468"
       style="clip-rule:nonzero;fill:#12285f;fill-opacity:1;fill-rule:nonzero;stroke:none" />
    <path
       inkscape:connector-curvature="0"
       id="path3335"
       d="m 63.125,21.93355 c 0.63281,0 0.94921,-0.30079 0.94921,-0.90235 0,-0.64453 -0.33984,-0.96484 -1.0039,-0.96484 l -2.89844,0 0,1.86719 z m 0.14453,-2.7461 c 0.5039,0 0.90234,0.16406 1.19922,0.5 0.29296,0.32422 0.4414,0.77344 0.4414,1.32813 0,0.57422 -0.15625,1.01953 -0.46094,1.32422 -0.30468,0.3125 -0.7539,0.46093 -1.34375,0.46093 l -2.93359,0 0,2.22657 -0.81641,0 0,-5.83985"
       style="clip-rule:nonzero;fill:#12285f;fill-opacity:1;fill-rule:nonzero;stroke:none" />
    <path
       inkscape:connector-curvature="0"
       id="path3337"
       d="m 71.09765,20.06636 -2.35937,0 0,4.96094 -0.81641,0 0,-4.96094 -2.35547,0 0,-0.87891 5.53125,0"
       style="clip-rule:nonzero;fill:#12285f;fill-opacity:1;fill-rule:nonzero;stroke:none" />
    <path
       inkscape:connector-curvature="0"
       id="path3339"
       d="m 77.21875,25.0273 -5.16797,0 0,-5.83985 4.97265,0 0,0.87891 -4.15625,0 0,1.49219 2.88672,0 0,0.87109 -2.88672,0 0,1.72656 4.35157,0"
       style="clip-rule:nonzero;fill:#12285f;fill-opacity:1;fill-rule:nonzero;stroke:none" />
    <path
       inkscape:connector-curvature="0"
       id="path3341"
       d="m 82.21093,21.93355 c 0.63282,0 0.94532,-0.30079 0.94532,-0.90235 0,-0.64453 -0.33985,-0.96484 -1.02344,-0.96484 l -2.875,0 0,1.86719 z m 1.82422,3.09375 -0.95312,0 -1.33203,-2.22657 -2.49219,0 0,2.22657 -0.81641,0 0,-5.83985 3.89063,0 c 0.51562,0 0.92578,0.16406 1.21875,0.5 0.29687,0.32422 0.44531,0.77735 0.44531,1.34375 0,0.49219 -0.125,0.88672 -0.36328,1.19141 -0.21875,0.28125 -0.52735,0.45312 -0.92188,0.53515"
       style="clip-rule:nonzero;fill:#12285f;fill-opacity:1;fill-rule:nonzero;stroke:none" />
    <path
       inkscape:connector-curvature="0"
       id="path3343"
       d="m 89.76562,20.56245 c -0.73047,-0.44531 -1.47656,-0.66015 -2.23437,-0.66015 -0.50391,0 -0.89063,0.0664 -1.15625,0.20703 -0.27344,0.14062 -0.40625,0.33593 -0.40625,0.58203 0,0.25781 0.14453,0.44531 0.43359,0.5625 0.20312,0.0898 0.53125,0.14062 0.99609,0.17969 0.6875,0.0508 1.13282,0.0976 1.35157,0.125 0.62109,0.0976 1.07421,0.27734 1.37109,0.54296 0.29687,0.26172 0.44531,0.64063 0.44531,1.125 0,0.61719 -0.23047,1.09375 -0.69531,1.4336 -0.46484,0.33594 -1.13281,0.50781 -2.00391,0.50781 -1.2539,0 -2.23437,-0.32812 -2.92968,-0.98437 l 0.44921,-0.70313 c 0.77344,0.55469 1.60157,0.83984 2.48829,0.83984 0.58203,0 1.02734,-0.0977 1.34765,-0.28515 0.30469,-0.17578 0.45703,-0.42969 0.45703,-0.75 0,-0.3711 -0.20312,-0.61719 -0.60156,-0.74219 -0.20703,-0.0625 -0.77344,-0.12891 -1.69141,-0.20312 -0.8125,-0.0586 -1.3789,-0.19141 -1.71093,-0.38672 -0.37891,-0.22266 -0.57032,-0.60157 -0.57032,-1.12891 0,-0.55078 0.21875,-0.98828 0.65235,-1.30078 0.43359,-0.32031 1.04297,-0.47656 1.83594,-0.47656 1.05859,0 1.95312,0.28906 2.67187,0.86328"
       style="clip-rule:nonzero;fill:#12285f;fill-opacity:1;fill-rule:nonzero;stroke:none" />
    <path
       inkscape:connector-curvature="0"
       id="path3345"
       d="m 20.25781,10.12886 c 0,5.59375 -4.53906,10.1289 -10.12891,10.1289 C 4.53515,20.25776 0,15.72261 0,10.12886 0,4.53901 4.53515,-5e-5 10.1289,-5e-5 c 5.58985,0 10.12891,4.53906 10.12891,10.12891"
       style="clip-rule:nonzero;fill:#12285f;fill-opacity:1;fill-rule:nonzero;stroke:none" />
    <path
       inkscape:connector-curvature="0"
       id="path3347"
       d="m 6.78125,8.21089 -0.69532,0.49609 2.8086,0 0.52343,-0.49609 z M 4.79687,12.10933 C 5.14453,11.6523 6.30859,9.95698 6.41015,9.81636 6.67578,9.47651 6.99218,9.39448 7.29296,9.39448 c 0.10547,0 7.74219,0.008 8.29297,0 0.75391,-0.008 0.90625,-0.23828 1,-0.34375 l 1.26172,-1.65625 -1.07812,0 c -0.16797,0.25 -0.58594,0.85938 -0.71485,1.0625 -0.36328,0.51172 -0.99609,0.46875 -0.99609,0.46875 0,0 -8.0625,0 -9.96484,0 -1.14454,0 -1.66797,0.74219 -1.66797,0.74219 L 1.75,12.10933 c 0,0 1.68359,0 3.04687,0 m 9.56641,-4.10157 0.35547,-0.51171 -13.85157,0 c -0.0469,0.17187 -0.0898,0.34375 -0.125,0.51171 z m 3.35937,1.875 c -0.11719,0.14063 -0.41797,0.39454 -1.21484,0.39454 l -5.64063,0 c 0,0 -0.42968,0 -0.72656,0.42578 -0.17578,0.23047 -0.60937,0.86328 -0.60937,0.86328 -0.0781,0.14062 -0.40625,0.59375 -1.25,0.59375 -0.1836,0 -1.50391,0 -2.9375,0 l 1.36718,-1.98047 c 0,0 0.19532,-0.36328 0.88672,-0.36328 l 8.31641,0 c 0.41797,0 0.80078,-0.10547 1.11328,-0.4961 0.25781,-0.33593 1.09766,-1.51171 1.38672,-1.90625 l 1.13281,0"
       style="clip-rule:nonzero;fill:#ffffff;fill-opacity:1;fill-rule:evenodd;stroke:none" />
    <path
       inkscape:connector-curvature="0"
       id="path3349"
       d="m 62.38281,13.66792 -4.21875,0 0,-2.37109 4.21875,0 c 0.69922,0.008 1.2539,0.52734 1.2539,1.17578 0,0.65234 -0.55859,1.19531 -1.2539,1.19531 m -4.21875,-6.95312 4.14844,0 c 0.5625,0.008 1.04296,0.44531 1.04296,1.01953 0,0.57422 -0.5,1.02734 -1.07031,1.02734 l -4.12109,0 z m 6.60547,3.3164 c 0.78125,-0.55078 1.07422,-1.45703 1.07422,-2.46094 0,-1.8789 -1.58594,-3.39843 -3.53125,-3.39843 l -7.04688,0 0,12.03515 7.32422,0 0,0.008 c 2.05469,0 3.76562,-1.59375 3.76562,-3.53516 0,-1.26563 -0.75781,-2.19922 -1.58593,-2.64844 m 10.86718,-5.8789 0,6.76562 c 0,2.06641 -1.20703,2.92969 -2.6914,2.92969 -1.49219,0 -2.6875,-0.86328 -2.6875,-2.92969 l 0,-6.76562 -2.9961,0 0,6.78125 c 0,4.32812 2.53907,5.58593 5.6836,5.58593 3.14453,0 5.6875,-1.25781 5.6875,-5.58593 l 0,-6.78125 z M 86.16015,8.83607 C 83.73046,8.30873 82.91406,8.07826 82.91406,7.30482 c 0,-0.67578 0.875,-1.01953 2.26562,-1.01953 1.3086,0 2.89063,0.55859 3.82032,1.11719 L 89.94921,4.95326 C 88.53906,4.36732 86.84375,3.80873 84.60546,3.80873 c -2.93359,0 -4.76953,1.71875 -4.76953,3.8125 0,2.09765 1.51172,3.01953 4.50391,3.65234 2.32031,0.49219 2.94922,0.78906 2.94922,1.51172 0,0.72265 -0.9336,0.98828 -2.19141,0.98828 -1.625,0 -3.1914,-0.54297 -4.66797,-1.17578 l -0.89453,2.38672 c 1.76953,0.82031 3.60156,1.47265 5.78516,1.47265 3.63672,0 5.12109,-1.73828 5.12109,-3.76953 0,-1.80078 -1.25,-3.1914 -4.28125,-3.85156 m -56.42578,-4.66406 -6.07422,12.03515 3.60938,0 0.90625,-1.93359 4.14453,0 -1.28516,-2.63281 -1.64062,0 1.53906,-3.29688 3.88672,7.86328 3.61719,0 -6.31641,-12.03515 z m 24.41797,4 c 0,-2.1836 -1.5,-3.96875 -4.58984,-3.96875 l -6.24219,0 0,12.03125 2.89062,0 0,-9.48828 3.55078,0 c 1.04688,0 1.48438,0.64843 1.48438,1.41796 0,0.77344 -0.45703,1.39844 -1.50391,1.39844 l -2.48437,0 3.7539,6.67188 2.96875,0 c 0,0 -2.57031,-4.35547 -2.55468,-4.35547 1.85547,-0.58203 2.72656,-1.98828 2.72656,-3.70703 m -15.09766,8.04297 2.99219,0 0,-12.03516 -2.99219,0"
       style="clip-rule:nonzero;fill:#12285f;fill-opacity:1;fill-rule:nonzero;stroke:none" />
  </g>
</svg>
