<?xml version="1.0" encoding="UTF-8"?> <svg xmlns="http://www.w3.org/2000/svg" width="135" height="38" viewBox="0 0 135 38" fill="none"><path d="M38.0009 19C38.0009 8.50625 29.4938 0 19.0009 0C14.497 0 10.3613 1.56987 7.10502 4.18867H17.107C17.703 4.18867 17.9025 4.3891 17.9025 4.98685V7.41493C17.9025 7.65509 17.8619 7.9341 17.7833 8.29169L12.7311 31.2738C12.5713 32.0304 12.2535 32.0711 11.8552 32.0711H8.55305C8.15484 32.0711 7.79813 31.9112 7.95706 31.2738L13.049 9.20819C13.1276 8.84971 12.9695 8.72963 12.7311 8.72963H4.87119C4.2752 8.72963 4.4871 8.53097 4.4871 7.9341V6.7439C1.68995 10.0523 0 14.3284 0 19C0 29.4938 8.50714 38 19.0009 38C20.7023 38 22.3508 37.7731 23.9206 37.3537C23.9171 37.3537 23.9144 37.3537 23.9109 37.3537C20.3306 37.3537 17.7047 35.3609 17.7047 29.7454V17.2376C17.7047 11.2239 19.8927 9.27264 23.8712 9.27264C28.127 9.27264 29.9979 12.1413 29.9979 16.443C29.9979 17.0399 29.7984 17.4381 29.2015 17.4381H26.0591C25.4622 17.4381 25.2636 17.2377 25.2636 16.6408C25.2636 15.0886 25.2636 13.8136 23.8712 13.8136C22.4779 13.8136 22.4779 15.0886 22.4779 16.6408V19.7479C22.9158 19.6675 23.3944 19.6278 23.8712 19.6278C27.4506 19.6278 30.0368 21.6992 30.0368 27.2352V29.7454C30.0368 32.4145 29.4523 34.2696 28.4519 35.4801C34.1566 32.2017 38.0009 26.052 38.0009 19Z" fill="#00A2B3"></path><path d="M4.87136 8.72865H12.7313C12.9697 8.72865 13.1286 8.84872 13.0492 9.2072L7.95724 31.2728C7.79831 31.9111 8.15502 32.0701 8.55322 32.0701H11.8554C12.2536 32.0701 12.5715 32.0303 12.7313 31.2728L17.7835 8.29159C17.8621 7.93312 17.9036 7.65411 17.9036 7.41483V4.98586C17.9036 4.38811 17.704 4.18856 17.1072 4.18856H7.1052C6.15251 4.95407 5.27575 5.80964 4.48728 6.74291V7.93312C4.48728 8.52998 4.27538 8.72865 4.87136 8.72865Z" fill="white"></path><path d="M30.0366 27.2354C30.0366 21.6985 27.4505 19.6271 23.8702 19.6271C23.3934 19.6271 22.9157 19.6677 22.4778 19.7481V16.641C22.4778 15.0879 22.4778 13.8129 23.8702 13.8129C25.2634 13.8129 25.2634 15.0879 25.2634 16.641C25.2634 17.2379 25.4621 17.4374 26.059 17.4374H29.2014C29.7982 17.4374 29.9978 17.0392 29.9978 16.4423C29.9978 12.1407 28.1268 9.27287 23.8702 9.27287C19.8925 9.27287 17.7046 11.2242 17.7046 17.2379V29.7456C17.7046 35.3611 20.3305 37.353 23.9108 37.353C23.9143 37.353 23.917 37.353 23.9205 37.353C25.5248 36.9239 27.0443 36.2891 28.4517 35.4803C29.4521 34.2689 30.0366 32.4139 30.0366 29.7456V27.2354Z" fill="white"></path><path d="M23.8709 23.9703C22.7178 23.9703 22.5182 24.6069 22.4785 26.1609V29.7456C22.4785 31.7367 22.4785 33.0107 23.8709 33.0107C25.2633 33.0107 25.2633 31.7367 25.2633 29.7456V27.2354C25.2633 24.9265 25.2633 23.9703 23.8709 23.9703Z" fill="white"></path><path d="M25.2632 29.7451C25.2632 31.7362 25.2632 33.0103 23.8708 33.0103C22.4775 33.0103 22.4775 31.7362 22.4775 29.7451V26.1613C22.5182 24.6073 22.7177 23.9698 23.8708 23.9698C25.2632 23.9698 25.2632 24.926 25.2632 27.2349V29.7451Z" fill="#00A2B3"></path><mask id="mask0_7734_23386" style="mask-type:luminance" maskUnits="userSpaceOnUse" x="-26" y="-1101" width="802" height="1203"><path d="M-25.7861 101.233H775.12V-1100.13H-25.7861V101.233Z" fill="white"></path></mask><g mask="url(#mask0_7734_23386)"><path d="M49.0658 14.5801C50.9348 16.7811 51.11 17.5002 51.11 19.0386C51.11 20.7918 50.1366 22.0957 48.1899 22.0957C46.1062 22.0957 45.0933 20.6943 45.0933 18.5908C45.0933 18.2998 45.1907 18.1048 45.4832 18.1048H47.0216C47.3126 18.1048 47.4101 18.2023 47.4101 18.4947C47.4101 19.0782 47.4101 19.8763 48.0924 19.8763C48.7734 19.8763 48.7734 19.2533 48.7734 18.5329C48.7734 17.7926 48.1899 16.9944 47.1572 15.788C45.2882 13.587 45.0933 12.8665 45.0933 11.328C45.0933 9.57486 46.0666 8.27093 48.0147 8.27093C50.0985 8.27093 51.11 9.67375 51.11 11.7759C51.11 12.0683 51.0139 12.2632 50.7215 12.2632H49.1831C48.8906 12.2632 48.7931 12.1658 48.7931 11.8733C48.7931 11.2885 48.7931 10.4903 48.1122 10.4903C47.4299 10.4903 47.4299 11.1133 47.4299 11.8338C47.4299 12.574 48.0345 13.3722 49.0658 14.5801Z" fill="#252B2D"></path><path d="M52.0845 21.6098V8.75843C52.0845 8.466 52.1819 8.36852 52.4744 8.36852H56.68C56.9724 8.36852 57.0699 8.466 57.0699 8.75843V10.198C57.0699 10.4904 56.9724 10.5879 56.68 10.5879H54.811C54.4211 10.5879 54.4211 10.5879 54.4211 10.9778V13.3144C54.4211 13.7043 54.4211 13.7043 54.811 13.7043H56.68C56.9724 13.7043 57.0699 13.8018 57.0699 14.0942V15.5338C57.0699 15.8262 56.9724 15.9237 56.68 15.9237H54.811C54.4211 15.9237 54.4211 15.9237 54.4211 16.3136V19.3905C54.4211 19.779 54.4211 19.779 54.811 19.779H56.68C56.9724 19.779 57.0699 19.8765 57.0699 20.1689V21.6098C57.0699 21.9023 56.9724 21.9998 56.68 21.9998H52.4744C52.2794 21.9998 52.0845 21.9998 52.0845 21.6098Z" fill="#252B2D"></path><path d="M58.3354 21.6098V8.75843C58.3354 8.466 58.4329 8.36852 58.7254 8.36852H60.2836C60.5746 8.36852 60.6721 8.466 60.6721 8.75843V21.6098C60.6721 21.9998 60.4771 21.9998 60.2836 21.9998H58.7254C58.5304 21.9998 58.3354 21.9998 58.3354 21.6098Z" fill="#252B2D"></path><path d="M66.3197 21.7654L64.4309 16.2347C64.3914 16.0991 64.2755 16.1372 64.2755 16.2347V21.61C64.2755 21.9025 64.1781 21.9985 63.8856 21.9985H62.3274C62.035 21.9985 61.9375 21.9025 61.9375 21.61V8.75721C61.9375 8.46619 62.035 8.36872 62.3274 8.36872H63.6907C63.9054 8.36872 64.0029 8.40686 64.0806 8.62159L65.9694 14.2103C66.0075 14.3261 66.1248 14.3077 66.1248 14.2103V8.75721C66.1248 8.46619 66.2222 8.36872 66.5147 8.36872H68.0729C68.3639 8.36872 68.4614 8.46619 68.4614 8.75721V21.61C68.4614 21.9025 68.3639 21.9985 68.0729 21.9985H66.7096C66.5345 21.9985 66.3974 21.9604 66.3197 21.7654Z" fill="#252B2D"></path><path d="M69.7271 21.6098V8.75843C69.7271 8.466 69.8245 8.36852 70.117 8.36852H74.3226C74.615 8.36852 74.7125 8.466 74.7125 8.75843V10.198C74.7125 10.4904 74.615 10.5879 74.3226 10.5879H72.4536C72.0637 10.5879 72.0637 10.5879 72.0637 10.9778V13.3144C72.0637 13.7043 72.0637 13.7043 72.4536 13.7043H74.3226C74.615 13.7043 74.7125 13.8018 74.7125 14.0942V15.5338C74.7125 15.8262 74.615 15.9237 74.3226 15.9237H72.4536C72.0637 15.9237 72.0637 15.9237 72.0637 16.3136V19.3905C72.0637 19.779 72.0637 19.779 72.4536 19.779H74.3226C74.615 19.779 74.7125 19.8765 74.7125 20.1689V21.6098C74.7125 21.9023 74.615 21.9998 74.3226 21.9998H70.117C69.922 21.9998 69.7271 21.9998 69.7271 21.6098Z" fill="#252B2D"></path><path d="M76.3679 15.7289H78.3613C78.6537 15.7289 78.7512 15.8264 78.7512 16.1188V17.5583C78.7512 17.8508 78.6537 17.9482 78.3613 17.9482H76.3679C76.0755 17.9482 75.978 17.8508 75.978 17.5583V16.1188C75.978 15.8264 76.0755 15.7289 76.3679 15.7289Z" fill="#252B2D"></path><path d="M85.8977 21.9993C85.6646 21.9993 85.5078 21.9018 85.5078 21.6094V16.2354C85.5078 16.1379 85.4103 16.1379 85.392 16.2156L84.769 18.007C84.6898 18.2796 84.5344 18.2796 84.2816 18.2796H83.5215C83.328 18.2796 83.1712 18.2796 83.0935 18.007L82.4705 16.2156C82.4507 16.1379 82.3532 16.1379 82.3532 16.2354V21.6094C82.3532 21.9018 82.2557 21.9993 81.9647 21.9993H80.4065C80.1141 21.9993 80.0166 21.9018 80.0166 21.6094V8.75794C80.0166 8.46551 80.1141 8.36803 80.4065 8.36803H81.7698C82.0029 8.36803 82.0806 8.42737 82.1399 8.60254L83.8535 13.7038C83.8719 13.7815 83.9891 13.7815 84.0089 13.7038L85.7225 8.56299C85.7805 8.40759 85.8779 8.36803 86.0927 8.36803H87.4559C87.7469 8.36803 87.8444 8.46551 87.8444 8.75794V21.6094C87.8444 21.9018 87.7286 21.9993 87.4559 21.9993H85.8977Z" fill="#252B2D"></path><path d="M93.7063 21.9993C93.4534 21.9993 93.3361 21.9993 93.2782 21.7068L93.0437 20.1684C92.966 19.7799 92.966 19.7799 92.6156 19.7799H91.8754C91.525 19.7799 91.525 19.7799 91.4473 20.1684L91.2142 21.7068C91.1549 21.9993 91.0391 21.9993 90.7848 21.9993H89.1686C88.9737 21.9993 88.7801 21.9993 88.8381 21.6687L91.097 8.71839C91.1549 8.42737 91.2142 8.36803 91.525 8.36803H92.966C93.2782 8.36803 93.3361 8.42737 93.394 8.71839L95.653 21.6687C95.7123 21.9993 95.5174 21.9993 95.3224 21.9993H93.7063ZM91.7779 17.4616C91.72 17.8516 91.72 17.8516 92.1099 17.8516H92.3825C92.771 17.8516 92.771 17.8516 92.7131 17.4616L92.3232 14.8721C92.3049 14.7747 92.1876 14.7747 92.1678 14.8721L91.7779 17.4616Z" fill="#252B2D"></path><path d="M101.69 16.1377L102.664 21.5908C102.723 21.9015 102.548 21.999 102.391 21.999H100.814C100.562 21.999 100.444 21.999 100.385 21.7066L99.5487 16.9175H99.3735C98.9836 16.9175 98.9836 16.9175 98.9836 17.306V21.6105C98.9836 21.9015 98.8861 21.999 98.5937 21.999H97.0369C96.7444 21.999 96.647 21.9015 96.647 21.6105V8.7577C96.647 8.46527 96.7444 8.3692 97.0369 8.3692H99.3735C101.32 8.3692 102.683 9.34115 102.683 12.2626V13.0227C102.683 14.5413 102.313 15.5345 101.69 16.1377ZM98.9836 14.4043C98.9836 14.7942 98.9836 14.7942 99.3735 14.7942C100.347 14.7942 100.347 13.8011 100.347 12.8079V12.4774C100.347 11.4842 100.347 10.4911 99.3735 10.4911C98.9836 10.4911 98.9836 10.4911 98.9836 10.8796V14.4043Z" fill="#252B2D"></path><path d="M103.949 21.6098V8.75843C103.949 8.466 104.047 8.36852 104.339 8.36852H105.897C106.188 8.36852 106.286 8.466 106.286 8.75843V21.6098C106.286 21.9998 106.091 21.9998 105.897 21.9998H104.339C104.144 21.9998 103.949 21.9998 103.949 21.6098Z" fill="#252B2D"></path><path d="M107.747 8.36828H112.81C113.102 8.36828 113.2 8.46576 113.2 8.75819V10.1017C113.2 10.3927 113.102 10.4902 112.81 10.4902H111.837C111.447 10.4902 111.447 10.4902 111.447 10.8801V21.6096C111.447 21.9995 111.252 21.9995 111.057 21.9995H109.5C109.305 21.9995 109.11 21.9995 109.11 21.6096V10.8801C109.11 10.4902 109.11 10.4902 108.74 10.4902H107.747C107.357 10.4902 107.357 10.2966 107.357 10.1017V8.75819C107.357 8.56323 107.357 8.36828 107.747 8.36828Z" fill="#252B2D"></path><path d="M114.271 21.6098V8.75843C114.271 8.466 114.368 8.36852 114.66 8.36852H116.219C116.51 8.36852 116.607 8.466 116.607 8.75843V21.6098C116.607 21.9998 116.414 21.9998 116.219 21.9998H114.66C114.465 21.9998 114.271 21.9998 114.271 21.6098Z" fill="#252B2D"></path><path d="M123.754 21.9993C123.521 21.9993 123.364 21.9018 123.364 21.6094V16.2354C123.364 16.1379 123.266 16.1379 123.248 16.2156L122.625 18.007C122.546 18.2796 122.39 18.2796 122.138 18.2796H121.377C121.183 18.2796 121.027 18.2796 120.949 18.007L120.326 16.2156C120.307 16.1379 120.209 16.1379 120.209 16.2354V21.6094C120.209 21.9018 120.112 21.9993 119.819 21.9993H118.262C117.97 21.9993 117.873 21.9018 117.873 21.6094V8.75794C117.873 8.46551 117.97 8.36803 118.262 8.36803H119.626C119.859 8.36803 119.937 8.42737 119.996 8.60254L121.709 13.7038C121.728 13.7815 121.845 13.7815 121.865 13.7038L123.578 8.56299C123.636 8.40759 123.734 8.36803 123.949 8.36803H125.312C125.603 8.36803 125.7 8.46551 125.7 8.75794V21.6094C125.7 21.9018 125.583 21.9993 125.312 21.9993H123.754Z" fill="#252B2D"></path><path d="M126.967 21.6098V8.75843C126.967 8.466 127.065 8.36852 127.357 8.36852H131.563C131.855 8.36852 131.953 8.466 131.953 8.75843V10.198C131.953 10.4904 131.855 10.5879 131.563 10.5879H129.694C129.304 10.5879 129.304 10.5879 129.304 10.9778V13.3144C129.304 13.7043 129.304 13.7043 129.694 13.7043H131.563C131.855 13.7043 131.953 13.8018 131.953 14.0942V15.5338C131.953 15.8262 131.855 15.9237 131.563 15.9237H129.694C129.304 15.9237 129.304 15.9237 129.304 16.3136V19.3905C129.304 19.779 129.304 19.779 129.694 19.779H131.563C131.855 19.779 131.953 19.8765 131.953 20.1689V21.6098C131.953 21.9023 131.855 21.9998 131.563 21.9998H127.357C127.162 21.9998 126.967 21.9998 126.967 21.6098Z" fill="#252B2D"></path></g><path d="M45.1912 28.0364L45.0938 28.415H46.6661L46.7706 28.0364H45.1912Z" fill="#00A2B3"></path><mask id="mask1_7734_23386" style="mask-type:luminance" maskUnits="userSpaceOnUse" x="-26" y="-1101" width="802" height="1203"><path d="M-25.7861 101.233H775.12V-1100.13H-25.7861V101.233Z" fill="white"></path></mask><g mask="url(#mask1_7734_23386)"><path d="M54.8985 29.4707C54.8575 29.684 54.712 30.3395 54.6498 30.5542H51.5249V30.3607C52.1055 30.3197 52.1606 30.2702 52.1606 29.684V26.9264C52.1606 26.3401 52.1112 26.3048 51.5532 26.2638V26.0703H53.3529V26.2638C52.8091 26.3048 52.7469 26.3401 52.7469 26.9264V29.6501C52.7469 30.023 52.7808 30.1601 52.9051 30.2293C53.0436 30.3056 53.2781 30.3197 53.5677 30.3197C53.9463 30.3197 54.1808 30.2844 54.3404 30.105C54.4577 29.9679 54.5877 29.7461 54.6908 29.4297L54.8985 29.4707Z" fill="#00A2B3"></path><path d="M60.032 29.4638C59.991 29.6912 59.8526 30.3397 59.7904 30.553H56.4663V30.3608C57.0936 30.3128 57.1486 30.2577 57.1486 29.6983V26.9534C57.1486 26.3332 57.0936 26.312 56.5553 26.264V26.0705H59.6322C59.6322 26.2428 59.6661 26.7118 59.6873 27.0636L59.4867 27.0975C59.4245 26.8079 59.3567 26.6567 59.2663 26.5056C59.1702 26.3601 58.9838 26.312 58.4865 26.312H57.9624C57.749 26.312 57.7349 26.3262 57.7349 26.5324V28.0977H58.3834C59.0049 28.0977 59.0389 28.0426 59.1293 27.5806H59.3285V28.9058H59.1293C59.0389 28.4085 58.9908 28.3675 58.3904 28.3675H57.7349V29.6714C57.7349 29.995 57.7773 30.1391 57.9002 30.2295C58.0316 30.3128 58.2732 30.3199 58.6179 30.3199C59.142 30.3199 59.3355 30.2634 59.4867 30.0854C59.6039 29.9469 59.7353 29.7124 59.8243 29.4369L60.032 29.4638Z" fill="#00A2B3"></path><path d="M66.5331 26.0703C67.409 26.0703 68.0574 26.2497 68.4855 26.6565C68.8231 26.9885 69.0647 27.4914 69.0647 28.1399C69.0647 28.9663 68.7468 29.5808 68.2156 29.9806C67.6986 30.3818 67.0163 30.5542 66.1672 30.5542H64.5327V30.3677C65.1261 30.3268 65.1811 30.2844 65.1811 29.6981V26.932C65.1811 26.3401 65.1261 26.3118 64.5949 26.2709V26.0703H66.5331ZM65.7745 29.6501C65.7745 30.1742 66.0019 30.3056 66.5063 30.3056C67.7947 30.3056 68.3894 29.3393 68.3894 28.2359C68.3894 27.5254 68.1266 26.9122 67.5743 26.5873C67.2649 26.3881 66.8651 26.3048 66.4017 26.3048C66.1121 26.3048 65.9327 26.3401 65.8635 26.3881C65.7957 26.4362 65.7745 26.511 65.7745 26.7809V29.6501Z" fill="#00A2B3"></path><path d="M74.3582 29.4638C74.3172 29.6912 74.1787 30.3397 74.1166 30.553H70.7925V30.3608C71.4197 30.3128 71.4748 30.2577 71.4748 29.6983V26.9534C71.4748 26.3332 71.4197 26.312 70.8815 26.264V26.0705H73.9584C73.9584 26.2428 73.9923 26.7118 74.0135 27.0636L73.8129 27.0975C73.7507 26.8079 73.6829 26.6567 73.5925 26.5056C73.4964 26.3601 73.3099 26.312 72.8127 26.312H72.2885C72.0752 26.312 72.0611 26.3262 72.0611 26.5324V28.0977H72.7095C73.3311 28.0977 73.365 28.0426 73.4554 27.5806H73.6546V28.9058H73.4554C73.365 28.4085 73.317 28.3675 72.7166 28.3675H72.0611V29.6714C72.0611 29.995 72.1035 30.1391 72.2264 30.2295C72.3578 30.3128 72.5993 30.3199 72.944 30.3199C73.4682 30.3199 73.6617 30.2634 73.8129 30.0854C73.9301 29.9469 74.0615 29.7124 74.1505 29.4369L74.3582 29.4638ZM73.5515 25.3952L72.2758 25.8359L72.1854 25.6636C72.5584 25.4291 72.9511 25.1663 73.269 24.9601C73.3509 24.9742 73.5444 25.2426 73.5642 25.3387L73.5515 25.3952Z" fill="#00A2B3"></path><path d="M77.8091 26.0703C78.2994 26.0703 78.6921 26.1536 78.9676 26.3599C79.2374 26.5605 79.4168 26.8769 79.4168 27.3318C79.4168 28.2218 78.7401 28.6569 78.0719 28.7459C77.9688 28.753 77.8374 28.753 77.7611 28.7459L77.2511 28.616V29.6981C77.2511 30.2844 77.3133 30.3197 77.9335 30.3607V30.5542H76.0645V30.3607C76.6154 30.3197 76.6719 30.2646 76.6719 29.691V26.932C76.6719 26.326 76.6154 26.2977 76.1054 26.2638V26.0703H77.8091ZM77.2511 28.3885C77.3401 28.4224 77.5266 28.4705 77.7541 28.4705C78.2033 28.4705 78.7543 28.2289 78.7543 27.353C78.7543 26.6085 78.2782 26.2906 77.7131 26.2906C77.5195 26.2906 77.3754 26.326 77.326 26.374C77.2709 26.422 77.2511 26.5054 77.2511 26.6975V28.3885Z" fill="#00A2B3"></path><path d="M83.3156 30.5537V30.3602C83.7507 30.3051 83.8129 30.25 83.7224 29.9816C83.632 29.7117 83.495 29.3402 83.3424 28.9192H81.8746C81.7644 29.23 81.6599 29.5196 81.5709 29.8092C81.4183 30.2429 81.4805 30.3121 81.9975 30.3602V30.5537H80.5015V30.3602C80.9366 30.2994 81.0326 30.257 81.2742 29.651L82.7025 26.0288L82.9158 25.9666C83.3424 27.1533 83.8058 28.4643 84.2466 29.6637C84.4669 30.257 84.5574 30.3192 85.0052 30.3602V30.5537H83.3156ZM82.6403 26.8637H82.6262C82.4058 27.4571 82.184 28.0575 81.9777 28.6225H83.2464L82.6403 26.8637Z" fill="#00A2B3"></path><path d="M90.7336 30.6089C90.6502 30.6089 90.5754 30.6089 90.492 30.6018C89.975 30.5736 89.6854 30.4224 89.3746 29.9746C89.133 29.6369 88.8858 29.2089 88.6781 28.8713C88.5608 28.6777 88.4436 28.5944 88.0848 28.5944H87.8644V29.6906C87.8644 30.2769 87.9265 30.3193 88.4775 30.3602V30.5538H86.6636V30.3602C87.2301 30.3193 87.2922 30.2769 87.2922 29.6906V26.9189C87.2922 26.3326 87.2357 26.3114 86.6989 26.2634V26.0699H88.4083C88.9126 26.0699 89.2502 26.132 89.513 26.3044C89.7885 26.4838 89.9679 26.7946 89.9679 27.2085C89.9679 27.8018 89.602 28.1677 89.092 28.3881C89.2093 28.6156 89.4989 29.0775 89.7066 29.3883C89.9538 29.7471 90.0993 29.9251 90.2646 30.106C90.451 30.3122 90.6093 30.3885 90.7604 30.4295L90.7336 30.6089ZM88.195 28.3669C88.5467 28.3669 88.7742 28.3118 88.9465 28.1748C89.2163 27.9671 89.3265 27.6916 89.3265 27.3187C89.3265 26.5742 88.8363 26.2973 88.3122 26.2973C88.113 26.2973 87.9958 26.3256 87.9407 26.3665C87.8912 26.4018 87.8644 26.4838 87.8644 26.6703V28.3669H88.195Z" fill="#00A2B3"></path><path d="M95.6324 27.1397C95.5561 26.8077 95.4939 26.6368 95.412 26.5252C95.3004 26.3599 95.1846 26.3118 94.6675 26.3118H94.1773V29.7052C94.1773 30.2505 94.2324 30.3197 94.8879 30.3607V30.5542H92.9073V30.3607C93.5359 30.3197 93.591 30.2505 93.591 29.7052V26.3118H93.163C92.5908 26.3118 92.4524 26.3669 92.3634 26.5252C92.28 26.6424 92.2249 26.8359 92.1416 27.1397H91.9424C91.9763 26.7258 92.0116 26.2779 92.0257 25.8979H92.1628C92.2588 26.0561 92.3492 26.0703 92.5428 26.0703H95.2665C95.453 26.0703 95.5081 26.0293 95.6183 25.8979H95.7638C95.7638 26.2158 95.7977 26.7187 95.8316 27.1185L95.6324 27.1397Z" fill="#00A2B3"></path><path d="M101.05 29.4638C101.009 29.6912 100.871 30.3397 100.808 30.553H97.4844V30.3608C98.1116 30.3128 98.1667 30.2577 98.1667 29.6983V26.9534C98.1667 26.3332 98.1116 26.312 97.5734 26.264V26.0705H100.65C100.65 26.2428 100.684 26.7118 100.705 27.0636L100.505 27.0975C100.443 26.8079 100.375 26.6567 100.284 26.5056C100.188 26.3601 100.002 26.312 99.5045 26.312H98.9804C98.7671 26.312 98.753 26.3262 98.753 26.5324V28.0977H99.4014C100.023 28.0977 100.057 28.0426 100.147 27.5806H100.347V28.9058H100.147C100.057 28.4085 100.009 28.3675 99.4085 28.3675H98.753V29.6714C98.753 29.995 98.7954 30.1391 98.9183 30.2295C99.0497 30.3128 99.2912 30.3199 99.6359 30.3199C100.16 30.3199 100.354 30.2634 100.505 30.0854C100.622 29.9469 100.753 29.7124 100.842 29.4369L101.05 29.4638Z" fill="#00A2B3"></path><path d="M106.604 30.5537V30.3602C107.164 30.3051 107.191 30.2712 107.184 29.5394L107.164 26.7253H107.136L105.453 30.5057H105.315L103.77 26.8227H103.755L103.652 28.7878C103.625 29.3543 103.625 29.6566 103.632 29.9335C103.646 30.2641 103.811 30.3121 104.266 30.3602V30.5537H102.659V30.3602C103.06 30.3121 103.197 30.2373 103.245 29.9462C103.28 29.7047 103.321 29.4024 103.376 28.6847L103.472 27.2494C103.535 26.3537 103.501 26.3255 102.873 26.2633V26.0698H104.004L105.577 29.5196L107.169 26.0698H108.342V26.2633C107.736 26.3184 107.688 26.3325 107.708 27.0431L107.777 29.5394C107.798 30.2712 107.818 30.3051 108.418 30.3602V30.5537H106.604Z" fill="#00A2B3"></path><path d="M113.671 29.4638C113.63 29.6912 113.491 30.3397 113.429 30.553H110.105V30.3608C110.732 30.3128 110.787 30.2577 110.787 29.6983V26.9534C110.787 26.3332 110.732 26.312 110.194 26.264V26.0705H113.271C113.271 26.2428 113.305 26.7118 113.326 27.0636L113.125 27.0975C113.063 26.8079 112.995 26.6567 112.905 26.5056C112.809 26.3601 112.622 26.312 112.125 26.312H111.601C111.388 26.312 111.374 26.3262 111.374 26.5324V28.0977H112.022C112.644 28.0977 112.678 28.0426 112.767 27.5806H112.967V28.9058H112.767C112.678 28.4085 112.629 28.3675 112.029 28.3675H111.374V29.6714C111.374 29.995 111.416 30.1391 111.539 30.2295C111.67 30.3128 111.912 30.3199 112.257 30.3199C112.781 30.3199 112.974 30.2634 113.125 30.0854C113.243 29.9469 113.374 29.7124 113.463 29.4369L113.671 29.4638Z" fill="#00A2B3"></path><path d="M120.06 26.2637C119.673 26.2848 119.508 26.3738 119.481 26.6776C119.453 26.8838 119.44 27.1946 119.44 27.836V30.6162H119.225L116.287 27.0011H116.273V28.7331C116.273 29.3674 116.294 29.6979 116.315 29.8986C116.349 30.2503 116.509 30.3337 116.978 30.3605V30.5541H115.342V30.3605C115.743 30.3393 115.915 30.2503 115.949 29.9127C115.971 29.6979 115.99 29.3674 115.99 28.7331V27.2158C115.99 26.7115 115.976 26.6846 115.852 26.5179C115.715 26.347 115.562 26.2905 115.239 26.2637V26.0701H116.26L119.136 29.5327H119.158V27.836C119.158 27.2017 119.129 26.8838 119.108 26.6903C119.074 26.3809 118.909 26.2905 118.433 26.2637V26.0701H120.06V26.2637Z" fill="#00A2B3"></path><path d="M125.388 27.1397C125.313 26.8077 125.25 26.6368 125.168 26.5252C125.058 26.3599 124.94 26.3118 124.423 26.3118H123.933V29.7052C123.933 30.2505 123.988 30.3197 124.644 30.3607V30.5542H122.665V30.3607C123.292 30.3197 123.347 30.2505 123.347 29.7052V26.3118H122.919C122.347 26.3118 122.21 26.3669 122.119 26.5252C122.036 26.6424 121.981 26.8359 121.897 27.1397H121.698C121.732 26.7258 121.767 26.2779 121.782 25.8979H121.92C122.015 26.0561 122.105 26.0703 122.299 26.0703H125.024C125.209 26.0703 125.264 26.0293 125.374 25.8979H125.52C125.52 26.2158 125.554 26.7187 125.589 27.1185L125.388 27.1397Z" fill="#00A2B3"></path></g><path d="M130.372 28.0364L130.276 28.415H131.849L131.952 28.0364H130.372Z" fill="#00A2B3"></path></svg> 