<svg height="160.604019" viewBox="0 0 66.68029 17.151425" width="622.649426" xmlns="http://www.w3.org/2000/svg"><g transform="matrix(.26458334 0 0 .26458334 -4.15925 -4.17777)"><g fill="#3b3836"><path d="m16.22 76.32v-12.81h1.89v12.63a2 2 0 0 0 2 2.24c1.4 0 2-.94 2-2.22v-12.65h1.79v12.68a3.61 3.61 0 0 1 -3.9 3.86c-2.21 0-3.78-1.19-3.78-3.73z"/><path d="m28 63.52h2l4.16 11.53v-11.53h1.84v16.31h-1.81l-4.41-12.52h-.07v12.52h-1.71z"/><path d="m40.21 63.52h1.9v16.31h-1.9z"/><path d="m46.37 63.52h3.91c2.29 0 3.34 1.48 3.34 4.07 0 2.08-.82 3.5-2.17 3.77v.09c1.64.37 2.31 1.9 2.31 3.85 0 3.27-1.4 4.53-3.37 4.53h-4zm3.34 7.18c1.19 0 2.08-.85 2.08-2.91 0-1.89-.73-2.65-1.81-2.65h-1.71v5.56zm.3 7.5c1.21 0 1.85-1 1.85-3s-.86-2.9-2.13-2.9h-1.46v5.9z"/><path d="m60.06 63.47h2.52l3.27 16.36h-1.85l-1-4.83h-3.6l-.91 4.88h-1.77zm2.64 9.93-1.45-7.76h-.06l-1.47 7.76z"/><path d="m69.42 63.52h1.9v16.31h-1.9z"/><path d="m75.59 63.52h1.9v14.66h4.6v1.65h-6.5z"/><path d="m84.24 72.38h3.93v1.51h-3.93z"/><path d="m91.71 63.52h3.59c2.59 0 3.87 1.64 3.87 4.53 0 2.31-.85 3.79-2.17 4.23l2.33 7.55h-1.92l-2.17-7.12h-1.63v7.12h-1.9zm3.55 7.73c1.35 0 2-1.08 2-3 0-1.61-.48-3.09-2.08-3.09h-1.57v6.13z"/><path d="m102.75 76.16v-9a3.69 3.69 0 0 1 4-3.87c2.22 0 3.94 1.17 3.94 3.68v9.13a3.7 3.7 0 0 1 -4 4c-2.36-.05-3.94-1.33-3.94-3.94zm6.07 0v-9.22a2.09 2.09 0 0 0 -4.17.07v9.18a2.09 2.09 0 1 0 4.17 0z"/><path d="m114.67 63.52h3.87c2.15 0 3.8 1.09 3.8 3.43v9.17c0 2.52-1.65 3.71-3.84 3.71h-3.83zm3.71 14.68a1.94 1.94 0 0 0 2.06-2.1v-9a1.87 1.87 0 0 0 -2.06-2h-1.81v13.1z"/><path d="m128.62 63.47h2.52l3.27 16.36h-1.9l-.94-4.83h-3.57l-1 4.83h-1.76zm2.63 9.93-1.44-7.76h-.07l-1.46 7.76z"/><path d="m137.88 63.52h2.29l2.47 7h.05l2.54-7h2.17v16.31h-1.69v-13h-.05l-2.4 6.77h-1.26l-2.36-6.75v12.98h-1.7z"/><path d="m151.34 76.39v-9.39c0-2.27 1.58-3.73 4-3.73s3.66 1.38 3.66 3.31v1.85h-1.7v-1.58a1.83 1.83 0 0 0 -2-2 1.92 1.92 0 0 0 -2.06 2.18v9.13a1.94 1.94 0 0 0 2.1 2.19 1.84 1.84 0 0 0 2-1.94v-1.6h1.66v1.69a3.42 3.42 0 0 1 -3.71 3.52c-2.35.03-3.95-1.27-3.95-3.63z"/><path d="m162.63 76.16v-9a3.68 3.68 0 0 1 4-3.87c2.22 0 3.93 1.17 3.93 3.68v9.13a3.69 3.69 0 0 1 -4 4c-2.35-.05-3.93-1.33-3.93-3.94zm6.06 0v-9.22a2.0802945 2.0802945 0 0 0 -4.16.07v9.18a2.08 2.08 0 1 0 4.16 0z"/><path d="m173.9 72.38h3.94v1.51h-3.94z"/><path d="m180.16 63.51h1.84l1.51 11.92h.07l1.78-11.92h1.88l1.78 11.9h.05l1.49-11.9h1.69l-2.25 16.43h-1.76l-1.94-12.47h-.07l-1.9 12.47h-1.76z"/><path d="m195.72 63.52h6.47v1.62h-4.57v5.35h3.66v1.63h-3.66v6.08h4.6v1.63h-6.5z"/><path d="m204.28 76 1.78-.07c.14 1.49.67 2.61 2 2.61s1.79-1.19 1.79-2.29a4.8 4.8 0 0 0 -1.42-3.09l-1.95-2.16a6.24 6.24 0 0 1 -1.95-4 3.37 3.37 0 0 1 3.55-3.66c1.8 0 3.22 1 3.38 3.82h-1.69c-.18-1.58-.71-2.34-1.81-2.34s-1.67.66-1.67 2a4.94 4.94 0 0 0 1.6 2.93l1.7 1.92a6.56 6.56 0 0 1 2 4.51c0 2.28-1.28 3.93-3.59 3.93s-3.56-1.52-3.72-4.11z"/><path d="m216.58 65.12h-3.12v-1.6h8.1v1.6h-3.08v14.71h-1.9z"/><path d="m225 63.52h6.45v1.6h-4.56v5.42h3.62v1.65h-3.62v7.64h-1.89z"/><path d="m234.56 63.52h1.9v16.31h-1.9z"/><path d="m240.73 63.52h6.48v1.62h-4.58v5.35h3.66v1.63h-3.66v6.08h4.6v1.63h-6.5z"/><path d="m251 63.52h1.89v14.66h4.6v1.65h-6.49z"/><path d="m259.58 63.52h3.86c2.15 0 3.8 1.09 3.8 3.43v9.17c0 2.52-1.65 3.71-3.84 3.71h-3.82zm3.7 14.68a1.94 1.94 0 0 0 2.06-2.1v-9a1.87 1.87 0 0 0 -2.06-2h-1.81v13.1z"/></g><path d="m164 24.74c-.76-4.7-1.37-8.43-1.37-8.43l-12.32 5h-.06l.23.92s3.13-1.21 4.18-.05a1.77 1.77 0 0 1 .44.78c.29.93.72 2.85 1.5 7.09a2.34 2.34 0 0 1 -.39 1.79l-.05.05-5.54 5.6c-.22-1.42-.15-1 0 0-1.24-8.08-3.4-21.2-3.4-21.2l-12.38 5.05.22.91s3.14-1.21 4.19 0a1.71 1.71 0 0 1 .44.77c.28.93.72 2.85 1.5 7.09a2.26 2.26 0 0 1 -.51 1.92l-5.47 5.53c-1.24-8.08-3.39-21.14-3.39-21.14l-12.38 5.05.23.92s3.13-1.21 4.18 0c.49.55.83.31 4.91 24.76v.07c.06.46.33 3.49-2.86 6.2l1 1.15s9.88-6.47 8.89-13.41l-.09-.56 6.3-6.32c.57 3.24 1.29 7.4 2.18 12.74v.08c.07.5.3 3.5-2.86 6.19l.95 1.14s9.87-6.43 8.87-13.43c0-.16 0-.34-.07-.51l6.35-6.33 4.91-4.9a6.71 6.71 0 0 0 1.67-4.52z" fill="#e1251b"/></g></svg>