<?xml version="1.0" encoding="UTF-8"?>
<svg id="Calque_1" data-name="Calque 1" xmlns="http://www.w3.org/2000/svg" viewBox="0 0 237.81 245.31">
  <defs>
    <style>
      .cls-1 {
        fill: #10403b;
      }
    </style>
  </defs>
  <path class="cls-1" d="M115.16,0C65.4,0,12.63,36.29,1.96,88.52c-7.84,37.31,8.56,65.33,36.13,65.86,4.06,13.1,13.71,22.67,26.09,25.75,26.63,6.63,46.23-15.94,55.1-29.07,8.56,20.15,21.67,30.33,39.05,30.33,1.29,0,2.59-.06,3.93-.17,12.46-1.04,23.11-8.39,29.21-20.15,8.52-16.45,8.65-36.61.33-52.63h0c-7.54-14.52-24.76-19.22-37.88-16.34-5.77,1.26-9.92,2.99-13.96,5.97,7.26-30.14,12.24-60.93-2.4-66.98-3.61-1.49-7.87-.62-11.39,2.33-9.24,7.75-11.77,24.8-13.27,34.99l-.1.68c-1.06,7.12-1.18,18.37-1.25,23.78-.01.93-.02,1.66-.03,2.11-.11,4.54.62,21.98,1.57,29.46.13.99.21,2.01.3,3.04.25,2.97.54,6.31,1.81,9.79-7.62,15.01-25.78,38.1-47.63,33.06-8.57-1.97-15.61-8.53-18.81-17.35,17.84-3.06,46.21-13.94,53.22-32.21,2.25-5.86,2.12-11.94-.36-17.1-2.51-5.23-7.16-9.15-13.1-11.04-9.97-3.18-20.57-1.76-29.87,4.01-11.43,7.09-19.52,19.62-21.64,33.52-.56,3.63-1.41,6.53-1.31,10.44-15.94-.64-28.7-18.31-26.31-42.25C13.98,64.92,48.1,7.92,115.63,8.74c62.12,0,108.25,51.3,108.25,113.42s-46.6,113.16-108.72,113.16c-85.15,0-99.33-58.17-105.56-72.1-1.22,20.05,22.35,82.1,105.55,82.1,67.52,0,122.15-54.22,122.66-121.73C238.31,55.53,183.1,0,115.16,0ZM149.49,100.27c2.94-1.29,6.08-1.89,9.22-1.89,8.85,0,17.64,4.81,21.4,12.67,6.04,12.63,5.86,29.98-.44,42.19-2.96,5.74-8.59,12.95-18.6,14.69-9.57,1.67-18-1.04-25.03-8.04-8.63-8.58-11.85-20.33-11.33-23.46,1.58-9.42,4.54-15.66,8.8-22.67,3.07-5.05,9.94-10.85,15.98-13.5ZM120.44,64.27c.28-.98.6-2.41,1-4.22,1.3-5.86,4.76-21.41,9.39-21.61.03,0,.06,0,.1,0,.35,0,1.02.13,1.69,1.76,2.46,5.92,1.14,22.91-3.44,44.33-3,14.06-6.57,26.02-9.24,32.6-.79-8.79-1.65-18.83-1.67-24.46-.01-3.32.03-20.28,2.17-28.41ZM45.26,125.02c4.8-15.51,19.2-29.89,36.5-26.01,3.6.8,6.59,3.93,7.86,6.49,1.9,3.85.66,8.24-1.12,11.08-8.48,13.45-28.81,20.91-44.5,23.41-.6-5.41.21-10.01,1.27-14.96Z"/>
</svg>